<svg width="24" height="25" viewBox="0 0 24 25" fill="none" xmlns="http://www.w3.org/2000/svg">
<g clip-path="url(#clip0_280_2929)">
<path fill-rule="evenodd" clip-rule="evenodd" d="M3.1499 7.56274C3.1499 7.14853 3.48569 6.81274 3.8999 6.81274H20.0999C20.5141 6.81274 20.8499 7.14853 20.8499 7.56274C20.8499 7.97696 20.5141 8.31274 20.0999 8.31274H3.8999C3.48569 8.31274 3.1499 7.97696 3.1499 7.56274ZM3.1499 12.9627C3.1499 12.5485 3.48569 12.2127 3.8999 12.2127H20.0999C20.5141 12.2127 20.8499 12.5485 20.8499 12.9627C20.8499 13.377 20.5141 13.7127 20.0999 13.7127H3.8999C3.48569 13.7127 3.1499 13.377 3.1499 12.9627ZM8.5499 18.3627C8.5499 17.9485 8.88569 17.6127 9.2999 17.6127H20.0999C20.5141 17.6127 20.8499 17.9485 20.8499 18.3627C20.8499 18.777 20.5141 19.1127 20.0999 19.1127H9.2999C8.88569 19.1127 8.5499 18.777 8.5499 18.3627Z" fill="#555555"/>
</g>
<defs>
<clipPath id="clip0_280_2929">
<rect width="24" height="24" fill="white" transform="translate(0 0.962646)"/>
</clipPath>
</defs>
</svg>
