<svg width="14" height="26" viewBox="0 0 14 26" fill="none" xmlns="http://www.w3.org/2000/svg">
<path d="M13.2103 2.17936C13.3268 2.05605 13.418 1.91098 13.4784 1.75246C13.5389 1.59394 13.5675 1.42505 13.5627 1.25545C13.558 1.08586 13.5198 0.918863 13.4505 0.764011C13.3811 0.609158 13.282 0.469479 13.1587 0.352947C13.0353 0.236415 12.8903 0.145313 12.7317 0.0848434C12.5732 0.0243734 12.4043 -0.00428103 12.2347 0.000516669C12.0651 0.00531437 11.8982 0.04347 11.7433 0.112805C11.5884 0.18214 11.4488 0.281297 11.3322 0.404613L0.353068 12.0296C0.126333 12.2694 0 12.587 0 12.917C0 13.247 0.126333 13.5645 0.353068 13.8044L11.3322 25.4307C11.448 25.5567 11.5876 25.6584 11.7431 25.73C11.8985 25.8016 12.0666 25.8416 12.2376 25.8477C12.4086 25.8538 12.5791 25.8258 12.7392 25.7654C12.8993 25.705 13.0459 25.6134 13.1703 25.496C13.2947 25.3785 13.3945 25.2374 13.464 25.0811C13.5334 24.9247 13.5711 24.756 13.5748 24.585C13.5785 24.4139 13.5482 24.2438 13.4857 24.0845C13.4231 23.9252 13.3295 23.78 13.2103 23.6572L3.06815 12.917L13.2103 2.17936Z" fill="#25A665"/>
</svg>
