<svg width="14" height="26" viewBox="0 0 14 26" fill="none" xmlns="http://www.w3.org/2000/svg">
<path d="M0.789682 23.8206C0.67315 23.944 0.58205 24.089 0.521579 24.2475C0.461109 24.4061 0.432454 24.5749 0.437251 24.7445C0.442049 24.9141 0.480206 25.0811 0.549541 25.236C0.618876 25.3908 0.718032 25.5305 0.841349 25.6471C0.964665 25.7636 1.10973 25.8547 1.26825 25.9152C1.42678 25.9756 1.59566 26.0043 1.76526 25.9995C1.93486 25.9947 2.10185 25.9565 2.2567 25.8872C2.41155 25.8179 2.55123 25.7187 2.66777 25.5954L13.6469 13.9704C13.8737 13.7306 14 13.413 14 13.083C14 12.753 13.8737 12.4355 13.6469 12.1956L2.66777 0.569343C2.55201 0.443326 2.41236 0.341565 2.25693 0.269975C2.10151 0.198384 1.93341 0.158391 1.76241 0.152316C1.5914 0.146239 1.42088 0.174205 1.26077 0.234584C1.10066 0.294965 0.954144 0.386554 0.829729 0.504037C0.705315 0.62152 0.605484 0.762553 0.536037 0.918944C0.466588 1.07534 0.428908 1.24397 0.425182 1.41504C0.421456 1.58612 0.45176 1.75623 0.514333 1.9155C0.576906 2.07476 0.670502 2.22001 0.789684 2.3428L10.9319 13.083L0.789682 23.8206Z" fill="#25A665"/>
</svg>
